<svg viewBox="0 0 1400 900" xmlns="http://www.w3.org/2000/svg">
  <!-- White background rectangle -->
  <rect x="0" y="0" width="1400" height="900" fill="white"/>
  
  <defs>
    <linearGradient id="genGrad" x1="0%" y1="0%" x2="0%" y2="100%">
      <stop offset="0%" style="stop-color:#4F46E5;stop-opacity:1" />
      <stop offset="100%" style="stop-color:#6366F1;stop-opacity:1" />
    </linearGradient>
    <linearGradient id="discGrad" x1="0%" y1="0%" x2="0%" y2="100%">
      <stop offset="0%" style="stop-color:#DC2626;stop-opacity:1" />
      <stop offset="100%" style="stop-color:#EF4444;stop-opacity:1" />
    </linearGradient>
    <linearGradient id="resGrad" x1="0%" y1="0%" x2="0%" y2="100%">
      <stop offset="0%" style="stop-color:#F59E0B;stop-opacity:1" />
      <stop offset="100%" style="stop-color:#FBBF24;stop-opacity:1" />
    </linearGradient>
    <filter id="shadow">
      <feDropShadow dx="0" dy="2" stdDeviation="3" flood-opacity="0.3"/>
    </filter>
    <marker id="arrowhead" markerWidth="10" markerHeight="10" refX="9" refY="3" orient="auto">
      <polygon points="0 0, 10 3, 0 6" fill="#6B7280" />
    </marker>
  </defs>

  <text x="700" y="35" text-anchor="middle" style="font-size:32px;font-weight:bold;fill:#1F2937">
    Panoramic GAN Architecture
  </text>

  <g transform="translate(50, 55)">
    <rect x="0" y="0" width="20" height="20" fill="url(#genGrad)" rx="2"/>
    <text x="25" y="15" style="font-size:18px;fill:#374151">Generator Block</text>
    <rect x="180" y="0" width="20" height="20" fill="url(#discGrad)" rx="2"/>
    <text x="205" y="15" style="font-size:18px;fill:#374151">Discriminator Block</text>
    <rect x="380" y="0" width="20" height="20" fill="url(#resGrad)" rx="2"/>
    <text x="405" y="15" style="font-size:18px;fill:#374151">Residual Block</text>
  </g>

  <g transform="translate(50, 120)">
    <rect x="0" y="0" width="140" height="450" fill="none" stroke="#E5E7EB" stroke-width="2" stroke-dasharray="5,5" rx="8"/>
    <text x="70" y="25" text-anchor="middle" style="font-size:18px;font-weight:600;fill:#6B7280">Input</text>
    <rect x="20" y="40" width="100" height="60" fill="#FEF3C7" stroke="#F59E0B" stroke-width="2" rx="4" filter="url(#shadow)"/>
    <text x="70" y="65" text-anchor="middle" style="font-size:16px;font-weight:600;fill:#92400E">Noise z</text>
    <text x="70" y="85" text-anchor="middle" style="font-size:15px;fill:#92400E">128-dim</text>
    <line x1="70" y1="100" x2="70" y2="118" stroke="#6B7280" stroke-width="2" marker-end="url(#arrowhead)"/>
    <rect x="20" y="120" width="100" height="60" fill="#DBEAFE" stroke="#3B82F6" stroke-width="2" rx="4" filter="url(#shadow)"/>
    <text x="70" y="145" text-anchor="middle" style="font-size:16px;font-weight:600;fill:#1E40AF">Label Embed</text>
    <text x="70" y="165" text-anchor="middle" style="font-size:15px;fill:#1E40AF">128-dim</text>
    <line x1="70" y1="180" x2="70" y2="195" stroke="#6B7280" stroke-width="2" marker-end="url(#arrowhead)"/>
    <circle cx="70" cy="210" r="15" fill="#10B981" stroke="#059669" stroke-width="2" filter="url(#shadow)"/>
    <text x="70" y="217" text-anchor="middle" style="font-size:20px;font-weight:bold;fill:white">⊕</text>
    <line x1="70" y1="225" x2="70" y2="250" stroke="#6B7280" stroke-width="2" marker-end="url(#arrowhead)"/>
    <rect x="20" y="250" width="100" height="60" fill="url(#genGrad)" stroke="#4338CA" stroke-width="2" rx="4" filter="url(#shadow)"/>
    <text x="70" y="275" text-anchor="middle" style="font-size:16px;font-weight:600;fill:white">FC Layer</text>
    <text x="70" y="295" text-anchor="middle" style="font-size:15px;fill:white">512×8×16</text>
    <line x1="120" y1="280" x2="240" y2="280" stroke="#6B7280" stroke-width="2" marker-end="url(#arrowhead)"/>
  </g>

  <g transform="translate(240, 120)">
    <rect x="0" y="0" width="580" height="450" fill="none" stroke="#E5E7EB" stroke-width="2" rx="8"/>
    <text x="290" y="25" text-anchor="middle" style="font-size:18px;font-weight:600;fill:#6B7280">Generator Network</text>
    
    <g transform="translate(20, 60)">
      <rect x="0" y="0" width="120" height="80" fill="url(#genGrad)" stroke="#4338CA" stroke-width="2" rx="4" filter="url(#shadow)"/>
      <text x="60" y="25" text-anchor="middle" style="font-size:13px;font-weight:600;fill:white">ConvTrans 4×2</text>
      <text x="60" y="45" text-anchor="middle" style="font-size:13px;fill:white">512→256</text>
      <text x="60" y="65" text-anchor="middle" style="font-size:13px;fill:white">16×32</text>
      <rect x="0" y="100" width="120" height="60" fill="url(#resGrad)" stroke="#D97706" stroke-width="2" rx="4" filter="url(#shadow)"/>
      <text x="60" y="125" text-anchor="middle" style="font-size:13px;font-weight:600;fill:white">ResBlock</text>
      <text x="60" y="145" text-anchor="middle" style="font-size:13px;fill:white">256 ch</text>
      <line x1="60" y1="80" x2="60" y2="100" stroke="#6B7280" stroke-width="2" marker-end="url(#arrowhead)"/>
    </g>
    
    <g transform="translate(160, 60)">
      <rect x="0" y="0" width="120" height="80" fill="url(#genGrad)" stroke="#4338CA" stroke-width="2" rx="4" filter="url(#shadow)"/>
      <text x="60" y="25" text-anchor="middle" style="font-size:13px;font-weight:600;fill:white">ConvTrans 4×2</text>
      <text x="60" y="45" text-anchor="middle" style="font-size:13px;fill:white">256→128</text>
      <text x="60" y="65" text-anchor="middle" style="font-size:13px;fill:white">32×64</text>
      <rect x="0" y="100" width="120" height="60" fill="url(#resGrad)" stroke="#D97706" stroke-width="2" rx="4" filter="url(#shadow)"/>
      <text x="60" y="125" text-anchor="middle" style="font-size:13px;font-weight:600;fill:white">ResBlock</text>
      <text x="60" y="145" text-anchor="middle" style="font-size:13px;fill:white">128 ch</text>
      <line x1="60" y1="80" x2="60" y2="100" stroke="#6B7280" stroke-width="2" marker-end="url(#arrowhead)"/>
    </g>
    
    <g transform="translate(300, 60)">
      <rect x="0" y="0" width="120" height="80" fill="url(#genGrad)" stroke="#4338CA" stroke-width="2" rx="4" filter="url(#shadow)"/>
      <text x="60" y="25" text-anchor="middle" style="font-size:13px;font-weight:600;fill:white">ConvTrans 4×2</text>
      <text x="60" y="45" text-anchor="middle" style="font-size:13px;fill:white">128→64</text>
      <text x="60" y="65" text-anchor="middle" style="font-size:13px;fill:white">64×128</text>
      <rect x="0" y="100" width="120" height="60" fill="url(#resGrad)" stroke="#D97706" stroke-width="2" rx="4" filter="url(#shadow)"/>
      <text x="60" y="125" text-anchor="middle" style="font-size:13px;font-weight:600;fill:white">ResBlock</text>
      <text x="60" y="145" text-anchor="middle" style="font-size:13px;fill:white">64 ch</text>
      <line x1="60" y1="80" x2="60" y2="100" stroke="#6B7280" stroke-width="2" marker-end="url(#arrowhead)"/>
    </g>
    
    <g transform="translate(440, 60)">
      <rect x="0" y="0" width="120" height="80" fill="url(#genGrad)" stroke="#4338CA" stroke-width="2" rx="4" filter="url(#shadow)"/>
      <text x="60" y="25" text-anchor="middle" style="font-size:13px;font-weight:600;fill:white">ConvTrans 4×2</text>
      <text x="60" y="45" text-anchor="middle" style="font-size:13px;fill:white">64→32</text>
      <text x="60" y="65" text-anchor="middle" style="font-size:13px;fill:white">128×256</text>
      <rect x="0" y="100" width="120" height="60" fill="url(#resGrad)" stroke="#D97706" stroke-width="2" rx="4" filter="url(#shadow)"/>
      <text x="60" y="125" text-anchor="middle" style="font-size:13px;font-weight:600;fill:white">ResBlock</text>
      <text x="60" y="145" text-anchor="middle" style="font-size:13px;fill:white">32 ch</text>
      <line x1="60" y1="80" x2="60" y2="100" stroke="#6B7280" stroke-width="2" marker-end="url(#arrowhead)"/>
    </g>
    
    <line x1="140" y1="120" x2="160" y2="120" stroke="#6B7280" stroke-width="2" marker-end="url(#arrowhead)"/>
    <line x1="280" y1="130" x2="300" y2="130" stroke="#6B7280" stroke-width="2" marker-end="url(#arrowhead)"/>
    <line x1="420" y1="130" x2="440" y2="130" stroke="#6B7280" stroke-width="2" marker-end="url(#arrowhead)"/>
    
    <g transform="translate(200, 280)">
      <rect x="0" y="0" width="180" height="80" fill="url(#genGrad)" stroke="#4338CA" stroke-width="2" rx="4" filter="url(#shadow)"/>
      <text x="90" y="30" text-anchor="middle" style="font-size:14px;font-weight:600;fill:white">Final Conv 7×7</text>
      <text x="90" y="50" text-anchor="middle" style="font-size:13px;fill:white">32→3 + Tanh</text>
      <text x="90" y="70" text-anchor="middle" style="font-size:13px;fill:white">128×256×3</text>
    </g>
    
    <path d="M 500 220 L 500 250 L 290 250 L 290 280" stroke="#6B7280" stroke-width="2" fill="none" marker-end="url(#arrowhead)"/>
    <line x1="490" y1="320" x2="580" y2="320" stroke="#6B7280" stroke-width="2" marker-end="url(#arrowhead)"/>
  </g>

  <g transform="translate(870, 280)">
    <rect x="0" y="0" width="150" height="100" fill="#FEF3C7" stroke="#F59E0B" stroke-width="2" rx="4" filter="url(#shadow)"/>
    <text x="75" y="30" text-anchor="middle" style="font-size:16px;font-weight:600;fill:#92400E">Generated</text>
    <text x="75" y="50" text-anchor="middle" style="font-size:16px;font-weight:600;fill:#92400E">Panorama</text>
    <text x="75" y="75" text-anchor="middle" style="font-size:13px;fill:#92400E">128×256×3</text>
  </g>
  
  <line x1="820" y1="440" x2="870" y2="330" stroke="#6B7280" stroke-width="2" marker-end="url(#arrowhead)"/>

  <g transform="translate(50, 630)">
    <rect x="0" y="0" width="970" height="220" fill="none" stroke="#E5E7EB" stroke-width="2" rx="8"/>
    <text x="485" y="25" text-anchor="middle" style="font-size:18px;font-weight:600;fill:#6B7280">Discriminator Network (Spectral Normalization)</text>
    
    <g transform="translate(20, 40)">
      <rect x="0" y="0" width="100" height="60" fill="#FEF3C7" stroke="#F59E0B" stroke-width="2" rx="4" filter="url(#shadow)"/>
      <text x="50" y="30" text-anchor="middle" style="font-size:13px;font-weight:600;fill:#92400E">Image</text>
      <text x="50" y="50" text-anchor="middle" style="font-size:12px;fill:#92400E">128×256×3</text>
      <rect x="0" y="80" width="100" height="60" fill="#DBEAFE" stroke="#3B82F6" stroke-width="2" rx="4" filter="url(#shadow)"/>
      <text x="50" y="105" text-anchor="middle" style="font-size:13px;font-weight:600;fill:#1E40AF">Label</text>
      <text x="50" y="125" text-anchor="middle" style="font-size:12px;fill:#1E40AF">Class Index</text>
    </g>
    
    <g transform="translate(140, 50)">
      <rect x="0" y="0" width="110" height="70" fill="url(#discGrad)" stroke="#B91C1C" stroke-width="2" rx="4" filter="url(#shadow)"/>
      <text x="55" y="25" text-anchor="middle" style="font-size:13px;font-weight:600;fill:white">Conv 4×2 + SN</text>
      <text x="55" y="45" text-anchor="middle" style="font-size:12px;fill:white">3→64</text>
      <text x="55" y="60" text-anchor="middle" style="font-size:12px;fill:white">64×128</text>
    </g>
    
    <g transform="translate(270, 50)">
      <rect x="0" y="0" width="110" height="70" fill="url(#discGrad)" stroke="#B91C1C" stroke-width="2" rx="4" filter="url(#shadow)"/>
      <text x="55" y="25" text-anchor="middle" style="font-size:13px;font-weight:600;fill:white">Conv 4×2 + SN</text>
      <text x="55" y="45" text-anchor="middle" style="font-size:12px;fill:white">64→128</text>
      <text x="55" y="60" text-anchor="middle" style="font-size:12px;fill:white">32×64</text>
    </g>
    
    <g transform="translate(400, 50)">
      <rect x="0" y="0" width="110" height="70" fill="url(#discGrad)" stroke="#B91C1C" stroke-width="2" rx="4" filter="url(#shadow)"/>
      <text x="55" y="25" text-anchor="middle" style="font-size:13px;font-weight:600;fill:white">Conv 4×2 + SN</text>
      <text x="55" y="45" text-anchor="middle" style="font-size:12px;fill:white">128→256</text>
      <text x="55" y="60" text-anchor="middle" style="font-size:12px;fill:white">16×32</text>
    </g>
    
    <g transform="translate(530, 50)">
      <rect x="0" y="0" width="110" height="70" fill="url(#discGrad)" stroke="#B91C1C" stroke-width="2" rx="4" filter="url(#shadow)"/>
      <text x="55" y="25" text-anchor="middle" style="font-size:13px;font-weight:600;fill:white">Conv 4×2 + SN</text>
      <text x="55" y="45" text-anchor="middle" style="font-size:12px;fill:white">256→512</text>
      <text x="55" y="60" text-anchor="middle" style="font-size:12px;fill:white">8×16</text>
    </g>
    
    <g transform="translate(660, 50)">
      <rect x="0" y="0" width="110" height="70" fill="#10B981" stroke="#059669" stroke-width="2" rx="4" filter="url(#shadow)"/>
      <text x="55" y="30" text-anchor="middle" style="font-size:13px;font-weight:600;fill:white">Global Avg</text>
      <text x="55" y="50" text-anchor="middle" style="font-size:13px;font-weight:600;fill:white">Pool</text>
      <text x="55" y="65" text-anchor="middle" style="font-size:12px;fill:white">512-dim</text>
    </g>
    
    <g transform="translate(790, 50)">
      <rect x="0" y="0" width="110" height="70" fill="#8B5CF6" stroke="#7C3AED" stroke-width="2" rx="4" filter="url(#shadow)"/>
      <text x="55" y="25" text-anchor="middle" style="font-size:13px;font-weight:600;fill:white">Projection</text>
      <text x="55" y="45" text-anchor="middle" style="font-size:13px;font-weight:600;fill:white">Head</text>
      <text x="55" y="60" text-anchor="middle" style="font-size:12px;fill:white">Real/Fake</text>
      <line x1="55" y1="140" x2="55" y2="70" stroke="#3B82F6" stroke-width="2" stroke-dasharray="4,4" marker-end="url(#arrowhead)"/>
    </g>
    
    <line x1="120" y1="85" x2="140" y2="85" stroke="#6B7280" stroke-width="2" marker-end="url(#arrowhead)"/>
    <line x1="250" y1="85" x2="270" y2="85" stroke="#6B7280" stroke-width="2" marker-end="url(#arrowhead)"/>
    <line x1="380" y1="85" x2="400" y2="85" stroke="#6B7280" stroke-width="2" marker-end="url(#arrowhead)"/>
    <line x1="510" y1="85" x2="530" y2="85" stroke="#6B7280" stroke-width="2" marker-end="url(#arrowhead)"/>
    <line x1="640" y1="85" x2="660" y2="85" stroke="#6B7280" stroke-width="2" marker-end="url(#arrowhead)"/>
    <line x1="770" y1="85" x2="790" y2="85" stroke="#6B7280" stroke-width="2" marker-end="url(#arrowhead)"/>
  </g>

  <path d="M 945 380 L 945 560 L 120 560 L 120 680" stroke="#F59E0B" stroke-width="3" stroke-dasharray="6,6" fill="none" marker-end="url(#arrowhead)"/>

  <g transform="translate(1040, 100)">
    <rect x="0" y="0" width="320" height="480" fill="#F3F4F6" stroke="#D1D5DB" stroke-width="2" rx="8" filter="url(#shadow)"/>
    <text x="160" y="30" text-anchor="middle" style="font-size:18px;font-weight:bold;fill:#1F2937">Training Configuration</text>
    
    <g transform="translate(20, 50)">
      <text x="0" y="0" style="font-size:15px;font-weight:600;fill:#374151">Loss Functions:</text>
      <text x="0" y="25" style="font-size:14px;fill:#6B7280">• Hinge Loss (G &amp; D)</text>
      <text x="0" y="48" style="font-size:14px;fill:#6B7280">• R1 Gradient Penalty</text>
      <text x="0" y="85" style="font-size:15px;font-weight:600;fill:#374151">Optimization:</text>
      <text x="0" y="110" style="font-size:14px;fill:#6B7280">• Adam Optimizer</text>
      <text x="0" y="133" style="font-size:14px;fill:#6B7280">• β₁=0.0, β₂=0.9</text>
      <text x="0" y="156" style="font-size:14px;fill:#6B7280">• LR_G: 5×10⁻⁶</text>
      <text x="0" y="179" style="font-size:14px;fill:#6B7280">• LR_D: 1×10⁻⁵</text>
      <text x="0" y="202" style="font-size:14px;fill:#6B7280">• Cosine Annealing</text>
      <text x="0" y="239" style="font-size:15px;font-weight:600;fill:#374151">Regularization:</text>
      <text x="0" y="264" style="font-size:14px;fill:#6B7280">• Spectral Norm (Disc)</text>
      <text x="0" y="287" style="font-size:14px;fill:#6B7280">• Instance Norm (Both)</text>
      <text x="0" y="310" style="font-size:14px;fill:#6B7280">• R1 Penalty γ=20.0</text>
      <text x="0" y="347" style="font-size:15px;font-weight:600;fill:#374151">Training Setup:</text>
      <text x="0" y="372" style="font-size:14px;fill:#6B7280">• Batch Size: 2</text>
      <text x="0" y="395" style="font-size:14px;fill:#6B7280">• Epochs: 250</text>
      <text x="0" y="418" style="font-size:14px;fill:#6B7280">• EMA decay=0.9999</text>
    </g>
  </g>
</svg>
