<svg viewBox="0 0 1600 1000" xmlns="http://www.w3.org/2000/svg">
  <!-- White background rectangle -->
  <rect x="0" y="0" width="1600" height="1000" fill="white"/>
  
  <defs>
    <linearGradient id="genGrad" x1="0%" y1="0%" x2="0%" y2="100%">
      <stop offset="0%" style="stop-color:#4F46E5;stop-opacity:1" />
      <stop offset="100%" style="stop-color:#6366F1;stop-opacity:1" />
    </linearGradient>
    <linearGradient id="discGrad" x1="0%" y1="0%" x2="0%" y2="100%">
      <stop offset="0%" style="stop-color:#DC2626;stop-opacity:1" />
      <stop offset="100%" style="stop-color:#EF4444;stop-opacity:1" />
    </linearGradient>
    <linearGradient id="resGrad" x1="0%" y1="0%" x2="0%" y2="100%">
      <stop offset="0%" style="stop-color:#F59E0B;stop-opacity:1" />
      <stop offset="100%" style="stop-color:#FBBF24;stop-opacity:1" />
    </linearGradient>
    <filter id="shadow">
      <feDropShadow dx="0" dy="3" stdDeviation="4" flood-opacity="0.3"/>
    </filter>
    <marker id="arrowhead" markerWidth="10" markerHeight="10" refX="9" refY="3" orient="auto">
      <polygon points="0 0, 10 3, 0 6" fill="#6B7280" />
    </marker>
  </defs>

  <text x="800" y="50" text-anchor="middle" style="font-size:44px;font-weight:bold;fill:#1F2937">
    Panoramic GAN Architecture
  </text>

  <g transform="translate(60, 80)">
    <rect x="0" y="0" width="28" height="28" fill="url(#genGrad)" rx="3"/>
    <text x="35" y="20" style="font-size:22px;fill:#374151;font-weight:600">Generator Block</text>
    <rect x="240" y="0" width="28" height="28" fill="url(#discGrad)" rx="3"/>
    <text x="275" y="20" style="font-size:22px;fill:#374151;font-weight:600">Discriminator Block</text>
    <rect x="510" y="0" width="28" height="28" fill="url(#resGrad)" rx="3"/>
    <text x="545" y="20" style="font-size:22px;fill:#374151;font-weight:600">Residual Block</text>
  </g>

  <g transform="translate(60, 140)">
    <rect x="0" y="0" width="160" height="500" fill="none" stroke="#E5E7EB" stroke-width="3" stroke-dasharray="6,6" rx="10"/>
    <text x="80" y="35" text-anchor="middle" style="font-size:24px;font-weight:700;fill:#6B7280">Input</text>
    <rect x="20" y="50" width="120" height="70" fill="#FEF3C7" stroke="#F59E0B" stroke-width="3" rx="6" filter="url(#shadow)"/>
    <text x="80" y="80" text-anchor="middle" style="font-size:20px;font-weight:700;fill:#92400E">Noise z</text>
    <text x="80" y="105" text-anchor="middle" style="font-size:18px;fill:#92400E">128-dim</text>
    <line x1="80" y1="120" x2="80" y2="150" stroke="#6B7280" stroke-width="2" marker-end="url(#arrowhead)"/>
    <rect x="15" y="155" width="130" height="70" fill="#DBEAFE" stroke="#3B82F6" stroke-width="3" rx="6" filter="url(#shadow)"/>
    <text x="80" y="185" text-anchor="middle" style="font-size:20px;font-weight:700;fill:#1E40AF">Label Embed</text>
    <text x="80" y="210" text-anchor="middle" style="font-size:18px;fill:#1E40AF">128-dim</text>
    <line x1="80" y1="225" x2="80" y2="255" stroke="#6B7280" stroke-width="2" marker-end="url(#arrowhead)"/>
    <circle cx="80" cy="270" r="20" fill="#10B981" stroke="#059669" stroke-width="3" filter="url(#shadow)"/>
    <text x="80" y="280" text-anchor="middle" style="font-size:26px;font-weight:bold;fill:white">⊕</text>
    <line x1="80" y1="290" x2="80" y2="320" stroke="#6B7280" stroke-width="2" marker-end="url(#arrowhead)"/>
    <rect x="20" y="325" width="120" height="70" fill="url(#genGrad)" stroke="#4338CA" stroke-width="3" rx="6" filter="url(#shadow)"/>
    <text x="80" y="355" text-anchor="middle" style="font-size:20px;font-weight:700;fill:white">FC Layer</text>
    <text x="80" y="380" text-anchor="middle" style="font-size:18px;fill:white">512×8×16</text>
    <line x1="140" y1="360" x2="270" y2="360" stroke="#6B7280" stroke-width="2" marker-end="url(#arrowhead)"/>
  </g>

  <g transform="translate(270, 140)">
    <rect x="0" y="0" width="650" height="500" fill="none" stroke="#E5E7EB" stroke-width="3" rx="10"/>
    <text x="325" y="35" text-anchor="middle" style="font-size:24px;font-weight:700;fill:#6B7280">Generator Network</text>
    
    <g transform="translate(25, 70)">
      <rect x="0" y="0" width="135" height="95" fill="url(#genGrad)" stroke="#4338CA" stroke-width="3" rx="6" filter="url(#shadow)"/>
      <text x="67.5" y="35" text-anchor="middle" style="font-size:20px;font-weight:700;fill:white">ConvTrans 4×2</text>
      <text x="67.5" y="60" text-anchor="middle" style="font-size:16px;fill:white">512→256</text>
      <text x="67.5" y="80" text-anchor="middle" style="font-size:16px;fill:white">16×32</text>
      <rect x="0" y="115" width="135" height="70" fill="url(#resGrad)" stroke="#D97706" stroke-width="3" rx="6" filter="url(#shadow)"/>
      <text x="67.5" y="145" text-anchor="middle" style="font-size:17px;font-weight:700;fill:white">ResBlock</text>
      <text x="67.5" y="170" text-anchor="middle" style="font-size:16px;fill:white">256 ch</text>
      <line x1="67.5" y1="95" x2="67.5" y2="115" stroke="#6B7280" stroke-width="2" marker-end="url(#arrowhead)"/>
    </g>
    
    <g transform="translate(180, 70)">
      <rect x="0" y="0" width="135" height="95" fill="url(#genGrad)" stroke="#4338CA" stroke-width="3" rx="6" filter="url(#shadow)"/>
      <text x="67.5" y="35" text-anchor="middle" style="font-size:20px;font-weight:700;fill:white">ConvTrans 4×2</text>
      <text x="67.5" y="60" text-anchor="middle" style="font-size:16px;fill:white">256→128</text>
      <text x="67.5" y="80" text-anchor="middle" style="font-size:16px;fill:white">32×64</text>
      <rect x="0" y="115" width="135" height="70" fill="url(#resGrad)" stroke="#D97706" stroke-width="3" rx="6" filter="url(#shadow)"/>
      <text x="67.5" y="145" text-anchor="middle" style="font-size:17px;font-weight:700;fill:white">ResBlock</text>
      <text x="67.5" y="170" text-anchor="middle" style="font-size:16px;fill:white">128 ch</text>
      <line x1="67.5" y1="95" x2="67.5" y2="115" stroke="#6B7280" stroke-width="2" marker-end="url(#arrowhead)"/>
    </g>
    
    <g transform="translate(335, 70)">
      <rect x="0" y="0" width="135" height="95" fill="url(#genGrad)" stroke="#4338CA" stroke-width="3" rx="6" filter="url(#shadow)"/>
      <text x="67.5" y="35" text-anchor="middle" style="font-size:20px;font-weight:700;fill:white">ConvTrans 4×2</text>
      <text x="67.5" y="60" text-anchor="middle" style="font-size:16px;fill:white">128→64</text>
      <text x="67.5" y="80" text-anchor="middle" style="font-size:16px;fill:white">64×128</text>
      <rect x="0" y="115" width="135" height="70" fill="url(#resGrad)" stroke="#D97706" stroke-width="3" rx="6" filter="url(#shadow)"/>
      <text x="67.5" y="145" text-anchor="middle" style="font-size:17px;font-weight:700;fill:white">ResBlock</text>
      <text x="67.5" y="170" text-anchor="middle" style="font-size:16px;fill:white">64 ch</text>
      <line x1="67.5" y1="95" x2="67.5" y2="115" stroke="#6B7280" stroke-width="2" marker-end="url(#arrowhead)"/>
    </g>
    
    <g transform="translate(490, 70)">
      <rect x="0" y="0" width="135" height="95" fill="url(#genGrad)" stroke="#4338CA" stroke-width="3" rx="6" filter="url(#shadow)"/>
      <text x="67.5" y="35" text-anchor="middle" style="font-size:20px;font-weight:700;fill:white">ConvTrans 4×2</text>
      <text x="67.5" y="60" text-anchor="middle" style="font-size:16px;fill:white">64→32</text>
      <text x="67.5" y="80" text-anchor="middle" style="font-size:16px;fill:white">128×256</text>
      <rect x="0" y="115" width="135" height="70" fill="url(#resGrad)" stroke="#D97706" stroke-width="3" rx="6" filter="url(#shadow)"/>
      <text x="67.5" y="145" text-anchor="middle" style="font-size:17px;font-weight:700;fill:white">ResBlock</text>
      <text x="67.5" y="170" text-anchor="middle" style="font-size:16px;fill:white">32 ch</text>
      <line x1="67.5" y1="95" x2="67.5" y2="115" stroke="#6B7280" stroke-width="2" marker-end="url(#arrowhead)"/>
    </g>
    
    <line x1="160" y1="150" x2="180" y2="150" stroke="#6B7280" stroke-width="2" marker-end="url(#arrowhead)"/>
    <line x1="315" y1="150" x2="335" y2="150" stroke="#6B7280" stroke-width="2" marker-end="url(#arrowhead)"/>
    <line x1="470" y1="150" x2="490" y2="150" stroke="#6B7280" stroke-width="2" marker-end="url(#arrowhead)"/>
    
    <g transform="translate(235, 330)">
      <rect x="0" y="0" width="200" height="95" fill="url(#genGrad)" stroke="#4338CA" stroke-width="3" rx="6" filter="url(#shadow)"/>
      <text x="100" y="35" text-anchor="middle" style="font-size:18px;font-weight:700;fill:white">Final Conv 7×7</text>
      <text x="100" y="60" text-anchor="middle" style="font-size:17px;fill:white">32→3 + Tanh</text>
      <text x="100" y="82" text-anchor="middle" style="font-size:17px;fill:white">128×256×3</text>
    </g>
    
    <path d="M 557.5 255 L 557.5 300 L 335 300 L 335 330" stroke="#6B7280" stroke-width="2" fill="none" marker-end="url(#arrowhead)"/>
    <line x1="535" y1="377.5" x2="650" y2="377.5" stroke="#6B7280" stroke-width="2" marker-end="url(#arrowhead)"/>
  </g>

  <g transform="translate(980, 340)">
    <rect x="0" y="0" width="180" height="120" fill="#FEF3C7" stroke="#F59E0B" stroke-width="3" rx="6" filter="url(#shadow)"/>
    <text x="90" y="45" text-anchor="middle" style="font-size:22px;font-weight:700;fill:#92400E">Generated</text>
    <text x="90" y="75" text-anchor="middle" style="font-size:22px;font-weight:700;fill:#92400E">Panorama</text>
    <text x="90" y="100" text-anchor="middle" style="font-size:18px;fill:#92400E">128×256×3</text>
  </g>
  
  <line x1="920" y1="517.5" x2="980" y2="400" stroke="#6B7280" stroke-width="2" marker-end="url(#arrowhead)"/>

  <g transform="translate(60, 700)">
    <rect x="0" y="0" width="1060" height="250" fill="none" stroke="#E5E7EB" stroke-width="3" rx="10"/>
    <text x="530" y="35" text-anchor="middle" style="font-size:24px;font-weight:700;fill:#6B7280">Discriminator Network (Spectral Normalization)</text>
    
    <g transform="translate(25, 55)">
      <rect x="0" y="0" width="115" height="70" fill="#FEF3C7" stroke="#F59E0B" stroke-width="3" rx="6" filter="url(#shadow)"/>
      <text x="57.5" y="38" text-anchor="middle" style="font-size:17px;font-weight:700;fill:#92400E">Image</text>
      <text x="57.5" y="60" text-anchor="middle" style="font-size:15px;fill:#92400E">128×256×3</text>
      <rect x="0" y="95" width="115" height="70" fill="#DBEAFE" stroke="#3B82F6" stroke-width="3" rx="6" filter="url(#shadow)"/>
      <text x="57.5" y="127" text-anchor="middle" style="font-size:17px;font-weight:700;fill:#1E40AF">Label</text>
      <text x="57.5" y="150" text-anchor="middle" style="font-size:15px;fill:#1E40AF">Class Index</text>
    </g>
    
    <g transform="translate(160, 70)">
      <rect x="0" y="0" width="125" height="80" fill="url(#discGrad)" stroke="#B91C1C" stroke-width="3" rx="6" filter="url(#shadow)"/>
      <text x="62.5" y="32" text-anchor="middle" style="font-size:17px;font-weight:700;fill:white">Conv 4×2 + SN</text>
      <text x="62.5" y="55" text-anchor="middle" style="font-size:15px;fill:white">3→64</text>
      <text x="62.5" y="72" text-anchor="middle" style="font-size:15px;fill:white">64×128</text>
    </g>
    
    <g transform="translate(305, 70)">
      <rect x="0" y="0" width="125" height="80" fill="url(#discGrad)" stroke="#B91C1C" stroke-width="3" rx="6" filter="url(#shadow)"/>
      <text x="62.5" y="32" text-anchor="middle" style="font-size:17px;font-weight:700;fill:white">Conv 4×2 + SN</text>
      <text x="62.5" y="55" text-anchor="middle" style="font-size:15px;fill:white">64→128</text>
      <text x="62.5" y="72" text-anchor="middle" style="font-size:15px;fill:white">32×64</text>
    </g>
    
    <g transform="translate(450, 70)">
      <rect x="0" y="0" width="125" height="80" fill="url(#discGrad)" stroke="#B91C1C" stroke-width="3" rx="6" filter="url(#shadow)"/>
      <text x="62.5" y="32" text-anchor="middle" style="font-size:17px;font-weight:700;fill:white">Conv 4×2 + SN</text>
      <text x="62.5" y="55" text-anchor="middle" style="font-size:15px;fill:white">128→256</text>
      <text x="62.5" y="72" text-anchor="middle" style="font-size:15px;fill:white">16×32</text>
    </g>
    
    <g transform="translate(595, 70)">
      <rect x="0" y="0" width="125" height="80" fill="url(#discGrad)" stroke="#B91C1C" stroke-width="3" rx="6" filter="url(#shadow)"/>
      <text x="62.5" y="32" text-anchor="middle" style="font-size:17px;font-weight:700;fill:white">Conv 4×2 + SN</text>
      <text x="62.5" y="55" text-anchor="middle" style="font-size:15px;fill:white">256→512</text>
      <text x="62.5" y="72" text-anchor="middle" style="font-size:15px;fill:white">8×16</text>
    </g>
    
    <g transform="translate(740, 70)">
      <rect x="0" y="0" width="125" height="80" fill="#10B981" stroke="#059669" stroke-width="3" rx="6" filter="url(#shadow)"/>
      <text x="62.5" y="37" text-anchor="middle" style="font-size:17px;font-weight:700;fill:white">Global Avg</text>
      <text x="62.5" y="60" text-anchor="middle" style="font-size:17px;font-weight:700;fill:white">Pool</text>
      <text x="62.5" y="77" text-anchor="middle" style="font-size:15px;fill:white">512-dim</text>
    </g>
    
    <g transform="translate(885, 70)">
      <rect x="0" y="0" width="125" height="80" fill="#8B5CF6" stroke="#7C3AED" stroke-width="3" rx="6" filter="url(#shadow)"/>
      <text x="62.5" y="32" text-anchor="middle" style="font-size:17px;font-weight:700;fill:white">Projection</text>
      <text x="62.5" y="55" text-anchor="middle" style="font-size:17px;font-weight:700;fill:white">Head</text>
      <text x="62.5" y="72" text-anchor="middle" style="font-size:15px;fill:white">Real/Fake</text>
      <line x1="62.5" y1="165" x2="62.5" y2="80" stroke="#3B82F6" stroke-width="2" stroke-dasharray="5,5" marker-end="url(#arrowhead)"/>
    </g>
    
    <line x1="140" y1="110" x2="160" y2="110" stroke="#6B7280" stroke-width="2" marker-end="url(#arrowhead)"/>
    <line x1="285" y1="110" x2="305" y2="110" stroke="#6B7280" stroke-width="2" marker-end="url(#arrowhead)"/>
    <line x1="430" y1="110" x2="450" y2="110" stroke="#6B7280" stroke-width="2" marker-end="url(#arrowhead)"/>
    <line x1="575" y1="110" x2="595" y2="110" stroke="#6B7280" stroke-width="2" marker-end="url(#arrowhead)"/>
    <line x1="720" y1="110" x2="740" y2="110" stroke="#6B7280" stroke-width="2" marker-end="url(#arrowhead)"/>
    <line x1="865" y1="110" x2="885" y2="110" stroke="#6B7280" stroke-width="2" marker-end="url(#arrowhead)"/>
  </g>

  <path d="M 1070 460 L 1070 630 L 140 630 L 140 755" stroke="#F59E0B" stroke-width="2" stroke-dasharray="8,8" fill="none" marker-end="url(#arrowhead)"/>

  <g transform="translate(1180, 80)">
    <rect x="0" y="0" width="400" height="550" fill="#F3F4F6" stroke="#D1D5DB" stroke-width="3" rx="10" filter="url(#shadow)"/>
    <text x="200" y="50" text-anchor="middle" style="font-size:26px;font-weight:bold;fill:#1F2937">Training Configuration</text>
    
    <g transform="translate(30, 95)">
      <text x="0" y="0" style="font-size:20px;font-weight:700;fill:#374151">Loss Functions:</text>
      <text x="0" y="25" style="font-size:18px;fill:#6B7280">• Hinge Loss (G &amp; D)</text>
      <text x="0" y="50" style="font-size:18px;fill:#6B7280">• R1 Gradient Penalty</text>
      
      <text x="0" y="83" style="font-size:20px;font-weight:700;fill:#374151">Optimization:</text>
      <text x="0" y="108" style="font-size:18px;fill:#6B7280">• Adam Optimizer</text>
      <text x="0" y="130" style="font-size:18px;fill:#6B7280">• β₁=0.0, β₂=0.9</text>
      <text x="0" y="155" style="font-size:18px;fill:#6B7280">• LR_G: 5×10⁻⁶</text>
      <text x="0" y="180" style="font-size:18px;fill:#6B7280">• LR_D: 1×10⁻⁵</text>
      <text x="0" y="205" style="font-size:18px;fill:#6B7280">• Cosine Annealing</text>
      
      <text x="0" y="238" style="font-size:20px;font-weight:700;fill:#374151">Regularization:</text>
      <text x="0" y="263" style="font-size:18px;fill:#6B7280">• Spectral Norm (Disc)</text>
      <text x="0" y="288" style="font-size:18px;fill:#6B7280">• Instance Norm (Both)</text>
      <text x="0" y="313" style="font-size:18px;fill:#6B7280">• R1 Penalty γ=20.0</text>
      
      <text x="0" y="346" style="font-size:20px;font-weight:700;fill:#374151">Training Setup:</text>
      <text x="0" y="371" style="font-size:18px;fill:#6B7280">• Batch Size: 2</text>
      <text x="0" y="396" style="font-size:18px;fill:#6B7280">• Epochs: 250</text>
      <text x="0" y="421" style="font-size:18px;fill:#6B7280">• EMA decay=0.9999</text>
    </g>
  </g>
</svg>
